<svg width="1000" height="1000" viewBox="0 0 1000 1000" fill="none" xmlns="http://www.w3.org/2000/svg">
<path d="M184.818 163.13C183.353 163.679 179.874 166.243 177.127 168.806C172.916 172.652 172 175.215 172 181.807C172 188.766 174.197 193.71 187.748 216.599C196.537 231.247 222.905 276.293 246.709 316.577C270.331 356.862 306.77 418.57 327.645 453.911C369.211 524.226 418.102 607.175 439.892 644.53C447.583 657.714 457.104 671.63 460.767 675.476C482.74 697.632 518.264 697.083 539.505 674.011C546.646 666.32 580.338 611.753 585.282 600.034C588.578 591.794 588.212 579.708 584.184 571.102C582.353 567.074 548.111 509.394 508.009 442.924C468.091 376.455 417.919 292.773 396.861 257.066C348.153 174.849 348.336 175.215 341.561 170.271C330.758 162.214 326.912 161.848 255.499 162.031C218.144 162.031 186.283 162.581 184.818 163.13Z" fill="black"/>
<path d="M427.257 165.327C420.299 169.722 416.637 177.779 418.651 184.92C420.116 190.231 467.908 271.898 481.275 291.857C489.698 304.492 497.755 308.154 507.46 304.126C513.32 301.745 517.714 295.153 548.294 244.248C586.381 180.709 587.663 177.596 577.958 167.891L573.014 162.764L502.882 162.215C436.962 161.848 432.568 162.031 427.257 165.327Z" fill="black"/>
<path d="M815.023 163.13C816.488 163.679 819.967 166.243 822.714 168.806C826.925 172.652 827.841 175.215 827.841 181.807C827.841 188.766 825.643 193.71 812.093 216.599C803.304 231.247 776.936 276.293 753.131 316.577C729.51 356.862 693.071 418.57 672.196 453.911C630.63 524.226 581.739 607.175 559.949 644.53C552.258 657.714 542.736 671.63 539.074 675.476C517.101 697.632 481.577 697.083 460.336 674.011C453.195 666.32 419.502 611.753 414.558 600.034C411.262 591.794 411.629 579.708 415.657 571.102C417.488 567.074 451.73 509.394 491.831 442.924C531.75 376.455 581.922 292.773 602.98 257.066C651.688 174.849 651.505 175.215 658.28 170.271C669.083 162.214 672.929 161.848 744.342 162.031C781.697 162.031 813.558 162.581 815.023 163.13Z" fill="#DB7734"/>
<path d="M192.514 747.651C190.447 749.707 189 753.818 189 756.697C189 763.686 245.634 878.814 249.975 880.459C256.795 882.926 266.923 881.692 270.437 877.786C272.297 875.73 281.392 857.844 290.486 838.314C299.581 818.578 311.776 792.468 317.563 780.133C326.244 761.631 327.691 756.902 326.244 752.585C323.764 745.801 315.083 742.306 307.435 745.184C302.681 746.828 298.961 753.613 281.185 793.702C269.61 819.606 259.689 840.575 259.069 840.575C258.449 840.575 248.321 820.428 236.746 795.758C224.965 771.293 214.01 749.501 212.15 747.445C208.016 742.717 196.854 742.922 192.514 747.651Z" fill="black"/>
<path d="M357.028 792.525C355.687 793.329 345.768 811.828 335.044 833.677C316.814 871.076 315.741 873.489 317.618 876.706C318.556 878.583 321.103 880.594 323.114 881.264C329.95 883.677 332.899 879.655 347.779 847.752C355.285 831.667 361.987 818.262 362.524 818.128C363.462 817.726 379.011 847.216 379.011 849.227C379.011 849.629 376.062 849.897 372.443 849.897C367.081 849.897 365.339 850.433 363.73 852.846C360.915 856.867 361.049 861.023 363.998 863.704C365.875 865.446 369.092 865.983 376.733 865.983H386.92L390.137 872.283C394.025 880.192 398.85 883.007 404.078 880.46C406.089 879.521 408.368 877.108 409.038 875.098C410.11 872.015 407.832 866.653 391.21 832.873C380.754 811.694 371.103 793.463 369.896 792.525C367.349 790.514 360.513 790.514 357.028 792.525Z" fill="black"/>
<path d="M448.18 793.597C429.413 800.97 418.958 815.983 418.958 835.822C418.958 858.744 433.301 876.17 455.954 880.728C469.493 883.543 486.383 878.985 495.766 870.138C501.798 864.374 502.067 862.363 498.179 857.404C494.56 852.712 490.136 852.98 482.496 858.208C477.134 861.961 474.721 862.631 466.812 863.034C458.903 863.436 456.491 863.034 451.397 860.219C431.156 849.495 432.362 820.407 453.408 810.889C463.595 806.198 473.649 807.94 485.445 816.519C491.075 820.541 491.477 820.541 495.364 818.53C506.758 812.632 499.922 799.898 481.691 793.597C471.906 790.112 457.161 790.112 448.18 793.597Z" fill="black"/>
<path d="M553.541 791.855C551.53 792.659 513.058 870.674 513.058 874.025C513.058 878.047 517.75 880.996 523.38 880.46L528.474 880.058L543.755 848.825C552.2 831.801 559.573 817.726 559.975 817.726C560.511 817.726 564.264 824.83 568.286 833.409L575.658 849.227L568.554 849.629C560.779 850.031 557.294 852.98 557.294 858.878C557.294 864.374 560.645 865.983 571.905 865.983H582.361L586.516 872.685C588.795 876.438 592.28 880.058 594.157 880.728C598.714 882.47 603.942 880.326 605.685 875.768C606.891 872.551 605.015 868.127 588.795 834.616C578.741 813.838 569.224 795.608 567.75 793.865C564.935 791.05 558.098 789.978 553.541 791.855Z" fill="black"/>
<path d="M624.987 794.268L621.636 797.485V835.822C621.636 860.353 622.172 875.098 623.111 876.84C625.658 881.8 633.298 882.738 639.33 878.851C639.464 878.851 639.867 866.251 640.269 850.969L641.073 823.088L663.861 851.506C679.41 870.808 687.721 880.192 690 880.728C694.29 881.8 700.456 879.789 702.064 876.706C702.869 875.232 703.405 857.94 703.405 834.75C703.405 798.289 703.271 795.206 700.992 793.195C697.641 790.246 690.938 790.38 688.258 793.329C686.247 795.474 685.979 799.495 685.979 822.149C685.979 836.626 685.577 848.557 684.906 848.557C684.37 848.557 683.298 847.484 682.494 846.144C679.813 841.988 646.837 801.104 642.011 795.876C636.113 789.71 629.947 789.174 624.987 794.268Z" fill="black"/>
<path d="M751.796 793.061C739.196 797.619 729.678 806.198 724.316 817.592C719.893 827.109 720.295 845.339 724.987 855.393C729.544 865.044 737.051 872.551 747.104 877.511C753.941 880.862 756.488 881.398 766.407 881.398C775.924 881.398 779.142 880.728 785.442 877.779C794.825 873.489 803.672 864.91 807.828 855.929C812.653 846.01 813.323 829.12 809.302 818.664C805.817 809.281 796.568 799.495 787.184 794.938C778.471 790.782 760.643 789.844 751.796 793.061ZM774.852 809.817C792.01 814.509 799.919 837.029 789.597 851.64C783.431 860.487 776.997 863.436 765.603 863.034C753.539 862.497 746.702 858.208 741.608 848.154C737.453 839.709 737.319 833.677 741.474 824.964C747.64 811.694 760.643 805.796 774.852 809.817Z" fill="black"/>
</svg>
