<svg width="620" height="138" viewBox="0 0 620 138" fill="none" xmlns="http://www.w3.org/2000/svg">
<path d="M3.49508 3.63138C1.43915 5.67627 0 9.76609 0 12.629C0 19.5816 56.3325 134.096 60.65 135.732C67.4345 138.186 77.5086 136.959 81.0037 133.074C82.854 131.029 91.9001 113.238 100.946 93.8117C109.992 74.1806 122.122 48.2103 127.879 35.9409C136.514 17.5367 137.953 12.8335 136.514 8.53914C134.047 1.79095 125.412 -1.68538 117.805 1.17749C113.076 2.81342 109.376 9.56161 91.6945 49.4373C80.1813 75.2031 70.3128 96.0611 69.6961 96.0611C69.0793 96.0611 59.0052 76.021 47.492 51.4822C35.7732 27.1478 24.8768 5.47179 23.0264 3.42688C18.9146 -1.2764 7.81254 -1.07191 3.49508 3.63138Z" fill="black"/>
<path d="M167.133 48.2667C165.8 49.0667 155.933 67.4667 145.267 89.2C127.133 126.4 126.067 128.8 127.933 132C128.867 133.867 131.4 135.867 133.4 136.533C140.2 138.933 143.133 134.933 157.933 103.2C165.4 87.2 172.067 73.8667 172.6 73.7334C173.533 73.3334 189 102.667 189 104.667C189 105.067 186.067 105.333 182.467 105.333C177.133 105.333 175.4 105.867 173.8 108.267C171 112.267 171.133 116.4 174.067 119.067C175.933 120.8 179.133 121.333 186.733 121.333H196.867L200.067 127.6C203.933 135.467 208.733 138.267 213.933 135.733C215.933 134.8 218.2 132.4 218.867 130.4C219.933 127.333 217.667 122 201.133 88.4C190.733 67.3334 181.133 49.2 179.933 48.2667C177.4 46.2667 170.6 46.2667 167.133 48.2667Z" fill="black"/>
<path d="M257.8 49.3334C239.133 56.6667 228.733 71.6 228.733 91.3334C228.733 114.133 243 131.467 265.533 136C279 138.8 295.8 134.267 305.133 125.467C311.133 119.733 311.4 117.733 307.533 112.8C303.933 108.133 299.533 108.4 291.933 113.6C286.6 117.333 284.2 118 276.333 118.4C268.467 118.8 266.067 118.4 261 115.6C240.867 104.933 242.067 76 263 66.5334C273.133 61.8667 283.133 63.6 294.867 72.1334C300.467 76.1334 300.867 76.1334 304.733 74.1334C316.067 68.2667 309.267 55.6 291.133 49.3334C281.4 45.8667 266.733 45.8667 257.8 49.3334Z" fill="black"/>
<path d="M362.6 47.6C360.6 48.4 322.333 126 322.333 129.333C322.333 133.333 327 136.267 332.6 135.733L337.667 135.333L352.867 104.267C361.267 87.3334 368.6 73.3334 369 73.3334C369.533 73.3334 373.267 80.4 377.267 88.9334L384.6 104.667L377.533 105.067C369.8 105.467 366.333 108.4 366.333 114.267C366.333 119.733 369.667 121.333 380.867 121.333H391.267L395.4 128C397.667 131.733 401.133 135.333 403 136C407.533 137.733 412.733 135.6 414.467 131.067C415.667 127.867 413.8 123.467 397.667 90.1334C387.667 69.4667 378.2 51.3334 376.733 49.6C373.933 46.8 367.133 45.7334 362.6 47.6Z" fill="black"/>
<path d="M433.667 50L430.333 53.2001V91.3334C430.333 115.733 430.867 130.4 431.8 132.133C434.333 137.067 441.933 138 447.933 134.133C448.067 134.133 448.467 121.6 448.867 106.4L449.667 78.6667L472.333 106.933C487.8 126.133 496.067 135.467 498.333 136C502.6 137.067 508.733 135.067 510.333 132C511.133 130.533 511.667 113.333 511.667 90.2667C511.667 54.0001 511.533 50.9334 509.267 48.9334C505.933 46 499.267 46.1334 496.6 49.0667C494.6 51.2001 494.333 55.2001 494.333 77.7334C494.333 92.1334 493.933 104 493.267 104C492.733 104 491.667 102.933 490.867 101.6C488.2 97.4667 455.4 56.8 450.6 51.6001C444.733 45.4667 438.6 44.9334 433.667 50Z" fill="black"/>
<path d="M559.8 48.8C547.267 53.3334 537.8 61.8667 532.467 73.2C528.067 82.6667 528.467 100.8 533.133 110.8C537.667 120.4 545.133 127.867 555.133 132.8C561.933 136.133 564.467 136.667 574.333 136.667C583.8 136.667 587 136 593.267 133.067C602.6 128.8 611.4 120.267 615.533 111.333C620.333 101.467 621 84.6667 617 74.2667C613.533 64.9333 604.333 55.2 595 50.6667C586.333 46.5333 568.6 45.6 559.8 48.8ZM582.733 65.4667C599.8 70.1333 607.667 92.5334 597.4 107.067C591.267 115.867 584.867 118.8 573.533 118.4C561.533 117.867 554.733 113.6 549.667 103.6C545.533 95.2 545.4 89.2 549.533 80.5334C555.667 67.3334 568.6 61.4667 582.733 65.4667Z" fill="black"/>
</svg>
