<svg width="600" height="600" viewBox="0 0 600 600" fill="none" xmlns="http://www.w3.org/2000/svg">
<path d="M70.3333 107.823C69.2667 108.223 66.7333 110.089 64.7333 111.956C61.6667 114.756 61 116.623 61 121.423C61 126.489 62.6 130.089 72.4667 146.756C78.8667 157.423 98.0667 190.223 115.4 219.556C132.6 248.889 159.133 293.823 174.333 319.556C204.6 370.756 240.2 431.156 256.067 458.356C261.667 467.956 268.6 478.089 271.267 480.889C287.267 497.023 313.133 496.623 328.6 479.823C333.8 474.223 358.333 434.489 361.933 425.956C364.333 419.956 364.067 411.156 361.133 404.889C359.8 401.956 334.867 359.956 305.667 311.556C276.6 263.156 240.067 202.223 224.733 176.223C189.267 116.356 189.4 116.623 184.467 113.023C176.6 107.156 173.8 106.889 121.8 107.023C94.6 107.023 71.4 107.423 70.3333 107.823Z" fill="black"/>
<path d="M246.867 109.423C241.8 112.623 239.133 118.49 240.6 123.69C241.667 127.556 276.467 187.023 286.2 201.556C292.333 210.756 298.2 213.423 305.267 210.49C309.533 208.756 312.733 203.956 335 166.89C362.733 120.623 363.667 118.356 356.6 111.29L353 107.556L301.933 107.156C253.933 106.89 250.733 107.023 246.867 109.423Z" fill="black"/>
<path d="M529.22 107.823C530.287 108.223 532.82 110.089 534.82 111.956C537.887 114.756 538.553 116.623 538.553 121.423C538.553 126.489 536.953 130.089 527.087 146.756C520.687 157.423 501.487 190.223 484.153 219.556C466.953 248.889 440.42 293.823 425.22 319.556C394.953 370.756 359.353 431.156 343.487 458.356C337.887 467.956 330.953 478.089 328.287 480.889C312.287 497.023 286.42 496.623 270.953 479.823C265.753 474.223 241.22 434.489 237.62 425.956C235.22 419.956 235.487 411.156 238.42 404.889C239.753 401.956 264.687 359.956 293.887 311.556C322.953 263.156 359.487 202.223 374.82 176.223C410.287 116.356 410.153 116.623 415.087 113.023C422.953 107.156 425.753 106.889 477.753 107.023C504.953 107.023 528.153 107.423 529.22 107.823Z" fill="#DB7734"/>
</svg>
